<svg width="1246" height="1533" viewBox="0 0 1246 1533" fill="none" xmlns="http://www.w3.org/2000/svg">
<path d="M625.587 0H593.148C270.294 0 8.56956 299.805 8.56956 669.633V1252.24L1210.16 1252.24V669.634C1210.16 299.805 948.44 0 625.587 0Z" fill="#292323"/>
<path d="M566.937 1253.83C566.937 1407.86 442.076 1532.72 288.052 1532.72C134.028 1532.72 9.16715 1407.86 9.16715 1253.83C9.16715 1099.81 134.028 974.948 288.052 974.948C442.076 974.948 566.937 1099.81 566.937 1253.83Z" fill="#292323"/>
<path d="M885.662 1253.83C885.662 1407.86 760.801 1532.72 606.778 1532.72C452.754 1532.72 327.893 1407.86 327.893 1253.83C327.893 1099.81 452.754 974.948 606.778 974.948C760.801 974.948 885.662 1099.81 885.662 1253.83Z" fill="#292323"/>
<path d="M1210.76 1253.83C1210.76 1407.86 1085.9 1532.72 931.878 1532.72C777.854 1532.72 652.993 1407.86 652.993 1253.83C652.993 1099.81 777.854 974.948 931.878 974.948C1085.9 974.948 1210.76 1099.81 1210.76 1253.83Z" fill="#292323"/>
<path d="M625.587 0H593.148C270.294 0 8.56956 299.805 8.56956 669.633V1252.24L1210.16 1252.24V669.634C1210.16 299.805 948.44 0 625.587 0Z" fill="#292323"/>
<path d="M566.937 1253.83C566.937 1407.86 442.076 1532.72 288.052 1532.72C134.028 1532.72 9.16715 1407.86 9.16715 1253.83C9.16715 1099.81 134.028 974.948 288.052 974.948C442.076 974.948 566.937 1099.81 566.937 1253.83Z" fill="#292323"/>
<path d="M885.662 1253.83C885.662 1407.86 760.801 1532.72 606.778 1532.72C452.754 1532.72 327.893 1407.86 327.893 1253.83C327.893 1099.81 452.754 974.948 606.778 974.948C760.801 974.948 885.662 1099.81 885.662 1253.83Z" fill="#292323"/>
<path d="M1210.76 1253.83C1210.76 1407.86 1085.9 1532.72 931.878 1532.72C777.854 1532.72 652.993 1407.86 652.993 1253.83C652.993 1099.81 777.854 974.948 931.878 974.948C1085.9 974.948 1210.76 1099.81 1210.76 1253.83Z" fill="#292323"/>
<path d="M942.088 430.139C828.687 269.061 550.316 226.089 384.883 331.617C219.451 437.145 182.603 612.406 207.11 804.524C217.021 882.222 229.482 943.203 236.296 1008.96C257.438 1212.99 535.787 1314.38 618.379 1314.38C748.393 1314.38 967.449 1171.52 994.776 1008.96C1019.68 860.831 1017.11 872.535 1019.03 804.524C1020.96 736.513 1055.49 591.218 942.088 430.139Z" fill="#F8B788"/>
<path d="M242.815 1045.89C315.547 1199.37 541.427 1275.69 615.328 1275.69C740.883 1275.69 946.962 1150.42 995.792 1001C995.301 1003.93 994.798 1006.93 994.284 1010C966.975 1172.79 748.054 1315.84 618.12 1315.84C540.564 1315.84 290.289 1226.21 242.815 1045.89Z" fill="#292323"/>
<path d="M715.798 1051.88C715.798 1107.05 671.073 1151.77 615.902 1151.77C560.731 1151.77 516.006 1107.05 516.006 1051.88C516.006 996.704 560.731 951.979 615.902 951.979C671.073 951.979 715.798 996.704 715.798 1051.88Z" fill="#DE8383"/>
<path fill-rule="evenodd" clip-rule="evenodd" d="M706.757 1024.14H525.203C540.655 989.576 576.256 965.489 616.566 965.489C656.877 965.489 691.306 989.576 706.757 1024.14Z" fill="#DE8383"/>
<path fill-rule="evenodd" clip-rule="evenodd" d="M706.757 1010H525.203C540.654 975.429 576.256 951.343 616.566 951.343C656.877 951.343 691.305 975.429 706.757 1010Z" fill="#F9F9F9"/>
<path d="M960.983 727.133C960.983 648.697 1024.57 585.112 1103 585.112C1181.44 585.112 1245.02 648.697 1245.02 727.133C1245.02 805.569 1181.44 869.154 1103 869.154C1024.57 869.154 960.983 805.569 960.983 727.133Z" fill="#F8B788"/>
<path d="M284.042 727.133C284.042 648.697 220.457 585.112 142.021 585.112C63.585 585.112 0 648.697 0 727.133C0 805.569 63.585 869.154 142.021 869.154C220.457 869.154 284.042 805.569 284.042 727.133Z" fill="#F8B788"/>
<path d="M431.368 725.232C431.368 712.889 441.374 702.883 453.718 702.883C466.061 702.883 476.067 712.889 476.067 725.232V769.931C476.067 782.274 466.061 792.281 453.718 792.281C441.374 792.281 431.368 782.274 431.368 769.931V725.232Z" fill="black"/>
<path d="M753.719 725.232C753.719 712.889 763.725 702.883 776.069 702.883C788.412 702.883 798.418 712.889 798.418 725.232V769.931C798.418 782.274 788.412 792.281 776.069 792.281C763.725 792.281 753.719 782.274 753.719 769.931V725.232Z" fill="black"/>
<path d="M271.149 884.684C271.149 846.05 302.468 814.731 341.102 814.731C379.735 814.731 411.054 846.05 411.054 884.684C411.054 923.317 379.735 954.636 341.102 954.636C302.468 954.636 271.149 923.317 271.149 884.684Z" fill="#F88888"/>
<path d="M828.819 884.684C828.819 846.05 860.138 814.731 898.772 814.731C937.406 814.731 968.724 846.05 968.724 884.684C968.724 923.317 937.406 954.636 898.772 954.636C860.138 954.636 828.819 923.317 828.819 884.684Z" fill="#F88888"/>
<path d="M258.206 771.092C200.99 771.092 187.979 642.149 193.675 575.42H258.206C243.593 612.759 250.575 645.278 254.603 685.559C259.29 732.426 304.601 697.603 314.177 679.119C315.333 715.903 286 771.092 258.206 771.092Z" fill="#292323"/>
<path d="M970.417 771.092C1027.63 771.092 1040.64 642.149 1034.95 575.42H970.417C985.029 612.759 978.047 645.278 974.019 685.559C969.333 732.426 924.021 697.603 914.445 679.119C913.289 715.903 942.623 771.092 970.417 771.092Z" fill="#292323"/>
<path d="M765.46 581.279C765.46 561.738 761.611 542.388 754.133 524.334C746.655 506.28 735.694 489.876 721.876 476.058C708.058 462.24 691.654 332.939 673.6 325.46C655.546 317.982 636.196 314.133 616.655 314.133C597.114 314.133 577.764 317.982 559.71 325.46C541.656 332.939 525.252 462.24 511.434 476.058C497.616 489.876 486.655 506.28 479.177 524.334C471.699 542.388 467.85 561.738 467.85 581.279H765.46Z" fill="#292323"/>
<path d="M995.111 430.131C1010.45 467.279 1022.06 510.978 1022.06 594.168C996.283 594.168 931.84 619.945 805.297 551.987C676.776 482.966 643.855 412.555 613.14 366.859C582.676 430.131 526.435 487.166 443.245 539.098C360.055 591.03 245.619 588.309 207.735 594.168C207.735 540.006 212.514 486.374 233.182 436.335C253.85 386.296 284.143 340.83 322.333 302.532C360.522 264.234 405.859 233.854 455.756 213.127C505.653 192.4 559.132 181.732 613.14 181.732C667.148 181.732 720.627 192.4 770.524 213.127C820.421 233.854 865.758 264.234 903.947 302.532C942.137 340.83 974.443 380.092 995.111 430.131Z" fill="#292323"/>
<path d="M625.587 0H593.148C270.294 0 8.56956 299.805 8.56956 669.633V1252.24L1210.16 1252.24V669.634C1210.16 299.805 948.44 0 625.587 0Z" fill="#292323"/>
<path d="M566.937 1253.83C566.937 1407.86 442.076 1532.72 288.052 1532.72C134.028 1532.72 9.16715 1407.86 9.16715 1253.83C9.16715 1099.81 134.028 974.948 288.052 974.948C442.076 974.948 566.937 1099.81 566.937 1253.83Z" fill="#292323"/>
<path d="M885.662 1253.83C885.662 1407.86 760.801 1532.72 606.778 1532.72C452.754 1532.72 327.893 1407.86 327.893 1253.83C327.893 1099.81 452.754 974.948 606.778 974.948C760.801 974.948 885.662 1099.81 885.662 1253.83Z" fill="#292323"/>
<path d="M1210.76 1253.83C1210.76 1407.86 1085.9 1532.72 931.878 1532.72C777.854 1532.72 652.993 1407.86 652.993 1253.83C652.993 1099.81 777.854 974.948 931.878 974.948C1085.9 974.948 1210.76 1099.81 1210.76 1253.83Z" fill="#292323"/>
<path d="M625.587 0H593.148C270.294 0 8.56956 299.805 8.56956 669.633V1252.24L1210.16 1252.24V669.634C1210.16 299.805 948.44 0 625.587 0Z" fill="#292323"/>
<path d="M566.937 1253.83C566.937 1407.86 442.076 1532.72 288.052 1532.72C134.028 1532.72 9.16715 1407.86 9.16715 1253.83C9.16715 1099.81 134.028 974.948 288.052 974.948C442.076 974.948 566.937 1099.81 566.937 1253.83Z" fill="#292323"/>
<path d="M885.662 1253.83C885.662 1407.86 760.801 1532.72 606.778 1532.72C452.754 1532.72 327.893 1407.86 327.893 1253.83C327.893 1099.81 452.754 974.948 606.778 974.948C760.801 974.948 885.662 1099.81 885.662 1253.83Z" fill="#292323"/>
<path d="M1210.76 1253.83C1210.76 1407.86 1085.9 1532.72 931.878 1532.72C777.854 1532.72 652.993 1407.86 652.993 1253.83C652.993 1099.81 777.854 974.948 931.878 974.948C1085.9 974.948 1210.76 1099.81 1210.76 1253.83Z" fill="#292323"/>
<path d="M942.088 430.139C828.687 269.061 550.316 226.089 384.883 331.617C219.451 437.145 182.603 612.406 207.11 804.524C217.021 882.222 229.482 943.203 236.296 1008.96C257.438 1212.99 535.787 1314.38 618.379 1314.38C748.393 1314.38 967.449 1171.52 994.776 1008.96C1019.68 860.831 1017.11 872.535 1019.03 804.524C1020.96 736.513 1055.49 591.218 942.088 430.139Z" fill="#F8B788"/>
<path d="M242.815 1045.89C315.547 1199.37 541.427 1275.69 615.328 1275.69C740.883 1275.69 946.962 1150.42 995.792 1001C995.301 1003.93 994.798 1006.93 994.284 1010C966.975 1172.79 748.054 1315.84 618.12 1315.84C540.564 1315.84 290.289 1226.21 242.815 1045.89Z" fill="#292323"/>
<path d="M715.798 1051.88C715.798 1107.05 671.073 1151.77 615.902 1151.77C560.731 1151.77 516.006 1107.05 516.006 1051.88C516.006 996.704 560.731 951.979 615.902 951.979C671.073 951.979 715.798 996.704 715.798 1051.88Z" fill="#DE8383"/>
<path fill-rule="evenodd" clip-rule="evenodd" d="M706.757 1024.14H525.203C540.655 989.576 576.256 965.489 616.566 965.489C656.877 965.489 691.306 989.576 706.757 1024.14Z" fill="#DE8383"/>
<path fill-rule="evenodd" clip-rule="evenodd" d="M706.757 1010H525.203C540.654 975.429 576.256 951.343 616.566 951.343C656.877 951.343 691.305 975.429 706.757 1010Z" fill="#F9F9F9"/>
<path d="M960.983 727.133C960.983 648.697 1024.57 585.112 1103 585.112C1181.44 585.112 1245.02 648.697 1245.02 727.133C1245.02 805.569 1181.44 869.154 1103 869.154C1024.57 869.154 960.983 805.569 960.983 727.133Z" fill="#F8B788"/>
<path d="M284.042 727.133C284.042 648.697 220.457 585.112 142.021 585.112C63.585 585.112 0 648.697 0 727.133C0 805.569 63.585 869.154 142.021 869.154C220.457 869.154 284.042 805.569 284.042 727.133Z" fill="#F8B788"/>
<path d="M431.368 725.232C431.368 712.889 441.374 702.883 453.718 702.883C466.061 702.883 476.067 712.889 476.067 725.232V769.931C476.067 782.274 466.061 792.281 453.718 792.281C441.374 792.281 431.368 782.274 431.368 769.931V725.232Z" fill="black"/>
<path d="M753.719 725.232C753.719 712.889 763.725 702.883 776.069 702.883C788.412 702.883 798.418 712.889 798.418 725.232V769.931C798.418 782.274 788.412 792.281 776.069 792.281C763.725 792.281 753.719 782.274 753.719 769.931V725.232Z" fill="black"/>
<path d="M271.149 884.684C271.149 846.05 302.468 814.731 341.102 814.731C379.735 814.731 411.054 846.05 411.054 884.684C411.054 923.317 379.735 954.636 341.102 954.636C302.468 954.636 271.149 923.317 271.149 884.684Z" fill="#F88888"/>
<path d="M828.819 884.684C828.819 846.05 860.138 814.731 898.772 814.731C937.406 814.731 968.724 846.05 968.724 884.684C968.724 923.317 937.406 954.636 898.772 954.636C860.138 954.636 828.819 923.317 828.819 884.684Z" fill="#F88888"/>
<path d="M258.206 771.092C200.99 771.092 187.979 642.149 193.675 575.42H258.206C243.593 612.759 250.575 645.278 254.603 685.559C259.29 732.426 304.601 697.603 314.177 679.119C315.333 715.903 286 771.092 258.206 771.092Z" fill="#292323"/>
<path d="M970.417 771.092C1027.63 771.092 1040.64 642.149 1034.95 575.42H970.417C985.029 612.759 978.047 645.278 974.019 685.559C969.333 732.426 924.021 697.603 914.445 679.119C913.289 715.903 942.623 771.092 970.417 771.092Z" fill="#292323"/>
<path d="M765.46 581.279C765.46 561.738 761.611 542.388 754.133 524.334C746.655 506.28 735.694 489.876 721.876 476.058C708.058 462.24 691.654 332.939 673.6 325.46C655.546 317.982 636.196 314.133 616.655 314.133C597.114 314.133 577.764 317.982 559.71 325.46C541.656 332.939 525.252 462.24 511.434 476.058C497.616 489.876 486.655 506.28 479.177 524.334C471.699 542.388 467.85 561.738 467.85 581.279H765.46Z" fill="#292323"/>
<path d="M995.111 430.131C1010.45 467.279 1022.06 510.978 1022.06 594.168C996.283 594.168 931.84 619.945 805.297 551.987C676.776 482.966 643.855 412.555 613.14 366.859C582.676 430.131 526.435 487.166 443.245 539.098C360.055 591.03 245.619 588.309 207.735 594.168C207.735 540.006 212.514 486.374 233.182 436.335C253.85 386.296 284.143 340.83 322.333 302.532C360.522 264.234 405.859 233.854 455.756 213.127C505.653 192.4 559.132 181.732 613.14 181.732C667.148 181.732 720.627 192.4 770.524 213.127C820.421 233.854 865.758 264.234 903.947 302.532C942.137 340.83 974.443 380.092 995.111 430.131Z" fill="#292323"/>
</svg>
